<svg xmlns="http://www.w3.org/2000/svg" viewBox="0 0 102.77 39.33"><defs><style>.cls-1{fill:#fff;}.cls-2{fill:#9d1c20;}</style></defs><g id="Layer_2" data-name="Layer 2"><g id="Layer_1-2" data-name="Layer 1"><path class="cls-1" d="M102.31,14.58V13H95.86V26.87H97.4V14.58Zm-6.91-2h7.37V15H97.86V27.33H95.4V12.57ZM83.06,22.05a5.34,5.34,0,0,1,0-4.2,5.67,5.67,0,0,1,1.15-1.7A5.05,5.05,0,0,1,85.92,15a5.29,5.29,0,0,1,2.1-.42,5.23,5.23,0,0,1,3.45,1.25l1.1-1.08a6.88,6.88,0,0,0-1.87-1.18,6.86,6.86,0,0,0-5.36,0,7.1,7.1,0,0,0-3.71,3.68,6.78,6.78,0,0,0,0,5.35,7.11,7.11,0,0,0,3.71,3.71,6.69,6.69,0,0,0,2.68.55,7,7,0,0,0,1.84-.24l-2-1.31a5.32,5.32,0,0,1-1.95-.42,5.15,5.15,0,0,1-1.71-1.15,5.29,5.29,0,0,1-1.16-1.7Zm1.47-5.58a5.15,5.15,0,0,0-1,1.57,4.87,4.87,0,0,0,0,3.82,4.91,4.91,0,0,0,2.63,2.62,4.69,4.69,0,0,0,1.91.38l2.86,1.89a7,7,0,0,1-2.86.58,7.09,7.09,0,0,1-2.87-.59,7.46,7.46,0,0,1-3.94-3.95,7.2,7.2,0,0,1,0-5.71,7.45,7.45,0,0,1,3.94-3.92A7.09,7.09,0,0,1,88,12.57a7,7,0,0,1,2.86.58,7.4,7.4,0,0,1,2.35,1.59l-1.74,1.72A4.82,4.82,0,0,0,88,15a4.91,4.91,0,0,0-3.49,1.43ZM69.09,19.2v1.52H78V19.2Zm-.46,2V18.74h9.82v2.44ZM78,14.58V13H69.74l1.53,1.55Zm-9.36-2h9.83V15H71.08ZM78,25.32H71.26l-1.67,1.55H78Zm-9.36,1.81,2.45-2.27h7.37v2.47H68.63v-.2ZM58.46,13,65.09,26.3,66,24.57,60.17,13Zm2-.46,6,12-1.38,2.76L57.72,12.57ZM55.14,24.84A6.5,6.5,0,0,0,57.2,20a6.54,6.54,0,0,0-2.06-4.88,6.87,6.87,0,0,0-9.76,0,6.59,6.59,0,0,0-2,4.89,6.95,6.95,0,0,0,6.92,6.92,6.58,6.58,0,0,0,4.88-2Zm.33-10.1A7.07,7.07,0,0,1,57.66,20a7,7,0,0,1-2.19,5.21A7.38,7.38,0,0,1,42.88,20a7.09,7.09,0,0,1,2.17-5.21,7.34,7.34,0,0,1,10.42,0Zm-1.75,8.7A4.78,4.78,0,0,0,55.17,20,4.93,4.93,0,0,0,50.26,15a4.91,4.91,0,1,0,0,9.82,4.75,4.75,0,0,0,3.46-1.42Zm.33-7.28A5.18,5.18,0,0,1,55.63,20a5.4,5.4,0,0,1-9.18,3.82A5.33,5.33,0,0,1,44.88,20a5.37,5.37,0,0,1,9.17-3.79ZM40.25,26.3V13H38.71v9.41l-.77-.69-9-8.14V16.1Zm-2-13.73h2.47V27.33l-12.28-11V12.57l9.81,8.84V12.57ZM25.82,26.3V13H24.28v9.41l-.77-.69-9-8.14V16.1Zm-2-13.73h2.46V27.33L14,16.3V12.57l9.81,8.84V12.57ZM11.4,24.64V15.22L9.88,13.71V26.18Zm-2-12L11.86,15v9.8L9.42,27.3Z"/><path class="cls-2" d="M5.31,32.22V7L1.23,3V36.33ZM0,0,6.55,6.49V32.73L0,39.33Z"/></g></g></svg>