<?xml version="1.0" encoding="utf-8"?>
<!-- Generator: Adobe Illustrator 19.2.1, SVG Export Plug-In . SVG Version: 6.00 Build 0)  -->
<svg version="1.1" id="layer" xmlns="http://www.w3.org/2000/svg" xmlns:xlink="http://www.w3.org/1999/xlink" x="0px" y="0px"
	 viewBox="0 0 652 652" style="enable-background:new 0 0 652 652;" xml:space="preserve">
<style type="text/css">
	.st0{fill:#231F20;}
	.st1{fill:#FFE090;}
	.st2{fill-rule:evenodd;clip-rule:evenodd;fill:#ED1D24;}
	.st3{fill-rule:evenodd;clip-rule:evenodd;fill:#231F20;}
</style>
<g>
	<path class="st0" d="M201.8,576.1V561h2.7c1.1,0,1.9,0.1,2.4,0.2c0.5,0.1,1,0.3,1.3,0.6c0.5,0.3,0.8,0.8,1.1,1.4
		c0.2,0.6,0.4,1.3,0.4,2c0,1.4-0.4,2.5-1.2,3.2c-0.8,0.7-2.1,1-3.8,1h-1.6v6.8H201.8z M203.2,568.1h0.9c1.7,0,2.8-0.2,3.4-0.6
		c0.6-0.4,0.9-1.2,0.9-2.2c0-0.4-0.1-0.9-0.2-1.2c-0.1-0.4-0.3-0.7-0.6-1c-0.3-0.3-0.6-0.5-1.1-0.6c-0.5-0.1-1.3-0.2-2.3-0.2h-0.9
		V568.1z"/>
	<path class="st0" d="M214.4,576.1l6.6-15.7l6.4,15.7h-1.5L224,571h-6.2l-2,5.1H214.4z M218.3,569.8h5.3l-2.6-6.6L218.3,569.8z"/>
	<path class="st0" d="M233.2,573.6l1.2-0.6c0.2,0.7,0.6,1.3,1.1,1.7c0.6,0.4,1.2,0.6,2,0.6c0.9,0,1.7-0.3,2.2-0.8
		c0.5-0.6,0.8-1.4,0.8-2.4c0-0.7-0.2-1.3-0.6-1.8c-0.4-0.5-1.1-1-2.3-1.7c-1.5-0.8-2.5-1.5-3-2.1c-0.5-0.6-0.8-1.3-0.8-2.2
		c0-1.1,0.4-1.9,1.1-2.6c0.7-0.7,1.7-1,2.8-1c0.8,0,1.4,0.2,2,0.5c0.6,0.3,1,0.8,1.4,1.4l-1.1,0.6c-0.2-0.4-0.5-0.8-0.9-1
		c-0.4-0.2-0.9-0.3-1.4-0.3c-0.8,0-1.3,0.2-1.8,0.7c-0.4,0.4-0.6,1-0.6,1.8c0,1,0.9,2,2.6,3c0.3,0.2,0.5,0.3,0.7,0.4
		c1.3,0.7,2.1,1.4,2.6,2c0.4,0.6,0.7,1.5,0.7,2.5c0,1.4-0.4,2.4-1.2,3.2c-0.8,0.8-1.9,1.2-3.2,1.2c-1,0-1.9-0.2-2.5-0.7
		C234.2,575.3,233.7,574.6,233.2,573.6"/>
	<path class="st0" d="M249.1,573.6l1.2-0.6c0.2,0.7,0.6,1.3,1.1,1.7c0.5,0.4,1.2,0.6,2,0.6c0.9,0,1.7-0.3,2.2-0.8
		c0.5-0.6,0.8-1.4,0.8-2.4c0-0.7-0.2-1.3-0.6-1.8c-0.4-0.5-1.1-1-2.3-1.7c-1.5-0.8-2.5-1.5-3-2.1c-0.5-0.6-0.8-1.3-0.8-2.2
		c0-1.1,0.4-1.9,1.1-2.6c0.7-0.7,1.7-1,2.8-1c0.8,0,1.4,0.2,2,0.5c0.5,0.3,1,0.8,1.3,1.4l-1,0.6c-0.2-0.4-0.5-0.8-1-1
		c-0.4-0.2-0.9-0.3-1.4-0.3c-0.7,0-1.3,0.2-1.8,0.7c-0.5,0.4-0.7,1-0.7,1.8c0,1,0.9,2,2.6,3c0.3,0.2,0.5,0.3,0.7,0.4
		c1.3,0.7,2.2,1.4,2.6,2c0.4,0.6,0.7,1.5,0.7,2.5c0,1.4-0.4,2.4-1.2,3.2c-0.8,0.8-1.9,1.2-3.2,1.2c-1,0-1.9-0.2-2.6-0.7
		C250,575.3,249.5,574.6,249.1,573.6"/>
	<rect x="266" y="561" class="st0" width="1.4" height="15.1"/>
	<path class="st0" d="M291.9,568.6c0,1.1-0.2,2.1-0.6,3c-0.4,1-1,1.8-1.8,2.6c-0.8,0.8-1.7,1.3-2.6,1.7c-1,0.4-2,0.6-3.1,0.6
		c-1.1,0-2.1-0.2-3.1-0.6c-1-0.4-1.9-1-2.6-1.7c-0.8-0.8-1.3-1.6-1.8-2.6s-0.6-2-0.6-3c0-1.1,0.2-2.1,0.6-3.1c0.4-1,1-1.8,1.8-2.6
		c0.8-0.7,1.6-1.3,2.6-1.7c1-0.4,2-0.6,3.1-0.6c1.1,0,2.2,0.2,3.1,0.6c1,0.4,1.8,1,2.6,1.7c0.8,0.8,1.4,1.6,1.8,2.6
		C291.7,566.5,291.9,567.5,291.9,568.6 M283.8,575.3c0.9,0,1.8-0.2,2.5-0.5c0.8-0.3,1.5-0.8,2.2-1.4c0.6-0.6,1.1-1.4,1.4-2.2
		c0.3-0.8,0.5-1.7,0.5-2.6c0-0.9-0.1-1.8-0.5-2.6c-0.3-0.8-0.8-1.5-1.5-2.2c-0.6-0.6-1.3-1.1-2.1-1.4c-0.8-0.3-1.7-0.5-2.6-0.5
		c-0.9,0-1.7,0.2-2.5,0.5c-0.8,0.3-1.5,0.8-2.2,1.4c-0.6,0.7-1.1,1.4-1.4,2.2c-0.3,0.8-0.5,1.7-0.5,2.6c0,0.9,0.1,1.8,0.5,2.6
		c0.3,0.8,0.8,1.5,1.4,2.2c0.7,0.6,1.4,1.1,2.2,1.5C282.1,575.1,282.9,575.3,283.8,575.3"/>
	<polygon class="st0" points="300.3,576.1 300.3,560.4 311,573 311,561 312.2,561 312.2,576.6 301.5,563.9 301.5,576.1 	"/>
	<path class="st0" d="M330.6,576.1l6.6-15.7l6.4,15.7h-1.5l-1.9-5.1H334l-2,5.1H330.6z M334.5,569.8h5.3l-2.6-6.6L334.5,569.8z"/>
	<polygon class="st0" points="352.1,576.1 352.1,562.3 348,562.3 348,561 357.7,561 357.7,562.3 353.5,562.3 353.5,576.1 	"/>
	<polygon class="st0" points="380.2,576.7 375,561 376.4,561 380.2,573.1 384.2,560.4 388.4,573 392.1,561 393.5,561 388.4,576.7 
		384.2,563.9 	"/>
	<path class="st0" d="M416.4,568.6c0,1.1-0.2,2.1-0.6,3c-0.4,1-1,1.8-1.8,2.6c-0.8,0.8-1.6,1.3-2.6,1.7c-1,0.4-2,0.6-3.1,0.6
		c-1.1,0-2.1-0.2-3.1-0.6c-1-0.4-1.9-1-2.6-1.7c-0.8-0.8-1.4-1.6-1.8-2.6c-0.4-1-0.6-2-0.6-3c0-1.1,0.2-2.1,0.6-3.1
		c0.4-1,1-1.8,1.8-2.6c0.8-0.7,1.6-1.3,2.6-1.7c1-0.4,2-0.6,3.1-0.6c1.1,0,2.2,0.2,3.1,0.6c1,0.4,1.8,1,2.6,1.7
		c0.8,0.8,1.4,1.6,1.8,2.6C416.2,566.5,416.4,567.5,416.4,568.6 M408.3,575.3c0.9,0,1.7-0.2,2.5-0.5c0.8-0.3,1.5-0.8,2.2-1.4
		c0.6-0.6,1.1-1.4,1.4-2.2c0.4-0.8,0.5-1.7,0.5-2.6c0-0.9-0.1-1.8-0.5-2.6c-0.3-0.8-0.8-1.5-1.4-2.2c-0.6-0.6-1.4-1.1-2.2-1.4
		c-0.8-0.3-1.7-0.5-2.6-0.5c-0.9,0-1.7,0.2-2.5,0.5c-0.8,0.3-1.5,0.8-2.2,1.4c-0.6,0.7-1.1,1.4-1.5,2.2c-0.3,0.8-0.5,1.7-0.5,2.6
		c0,0.9,0.1,1.8,0.5,2.6c0.3,0.8,0.8,1.5,1.5,2.2c0.6,0.6,1.4,1.1,2.1,1.5C406.5,575.1,407.4,575.3,408.3,575.3"/>
	<path class="st0" d="M433.9,576.1h-1.7l-5.3-7.2H426v7.2h-1.3V561h2.8c1.6,0,2.9,0.3,3.7,1c0.8,0.7,1.2,1.7,1.2,3.1
		c0,1.2-0.3,2.1-1,2.8c-0.7,0.7-1.6,1-2.9,1L433.9,576.1z M426,562.2v5.6h1.4c1.3,0,2.2-0.2,2.7-0.6c0.5-0.4,0.7-1.1,0.7-2.1
		c0-1-0.3-1.8-0.8-2.2c-0.5-0.4-1.4-0.7-2.6-0.7H426z"/>
	<polygon class="st0" points="441.1,576.1 441.1,561 442.5,561 442.5,568.1 449.3,561 451.2,561 444,568.2 451.5,576.1 449.5,576.1 
		442.5,568.4 442.5,576.1 	"/>
	<rect x="201.8" y="76.7" class="st1" width="249.7" height="464.9"/>
	<path class="st2" d="M283,196.2c0,1.8-1.5,3.3-3.3,3.3c-1.8,0-3.3-1.4-3.3-3.3c0-1.8,1.5-3.3,3.3-3.3
		C281.5,192.9,283,194.4,283,196.2"/>
	<path class="st3" d="M266.1,315.2c3.1,0,5.5-2.4,5.5-5.5c0-3-2.5-5.4-5.5-5.4c-3.1,0-5.5,2.4-5.5,5.4
		C260.6,312.8,263.1,315.2,266.1,315.2 M266.1,303.6c3,0,5.3-2.3,5.3-5.2c0-2.9-2.4-5.2-5.3-5.2c-2.9,0-5.3,2.3-5.3,5.2
		C260.8,301.3,263.2,303.6,266.1,303.6 M266.1,292.1c2.8,0,5.1-2.2,5.1-5c0-2.7-2.3-5-5.1-5c-2.8,0-5.1,2.2-5.1,5
		C261,289.8,263.3,292.1,266.1,292.1 M266.1,280.5c2.7,0,4.8-2.1,4.8-4.7c0-2.6-2.2-4.7-4.8-4.7c-2.7,0-4.8,2.1-4.8,4.7
		C261.3,278.4,263.4,280.5,266.1,280.5 M266.1,268.9c2.5,0,4.6-2,4.6-4.5c0-2.5-2.1-4.5-4.6-4.5c-2.5,0-4.6,2-4.6,4.5
		C261.5,266.9,263.6,268.9,266.1,268.9 M266.1,257.3c2.4,0,4.4-1.9,4.4-4.3c0-2.3-1.9-4.3-4.4-4.3c-2.4,0-4.4,1.9-4.4,4.3
		C261.7,255.4,263.7,257.3,266.1,257.3 M266.1,245.7c2.3,0,4.1-1.8,4.1-4c0-2.2-1.9-4-4.1-4c-2.3,0-4.1,1.8-4.1,4
		C262,243.9,263.8,245.7,266.1,245.7 M266.1,234.2c2.1,0,3.9-1.7,3.9-3.8c0-2.1-1.7-3.8-3.9-3.8c-2.1,0-3.9,1.7-3.9,3.8
		C262.2,232.5,264,234.2,266.1,234.2 M282.7,360.7c2-1.1,3.3-3.2,3.3-5.5c0-2.6-1.6-4.8-3.9-5.8c2.1-1,3.6-3.1,3.6-5.5
		c0-2.7-1.8-5-4.3-5.8c2.3-0.8,4-3,4-5.5c0-2.9-2.1-5.3-4.9-5.8c2.7-0.5,4.7-2.8,4.7-5.6c0-3.1-2.6-5.6-5.8-5.6
		c-3.2,0-5.8,2.6-5.8,5.6c0,2.8,2,5.1,4.7,5.6c-2.8,0.5-4.9,2.9-4.9,5.8c0,2.6,1.7,4.7,4.1,5.5c-2.5,0.8-4.3,3.1-4.3,5.8
		c0,2.4,1.5,4.6,3.6,5.5c-2.3,1-3.9,3.2-3.9,5.8c0,2.4,1.3,4.4,3.3,5.5c-2.1,1.1-3.6,3.3-3.6,5.8c0,3.6,3,6.6,6.7,6.6
		c3.7,0,6.7-3,6.7-6.6C286.3,364,284.8,361.8,282.7,360.7 M279.6,315.2c3.1,0,5.6-2.4,5.6-5.5c0-3-2.5-5.4-5.6-5.4
		c-3.1,0-5.5,2.4-5.5,5.4C274,312.8,276.5,315.2,279.6,315.2 M279.6,303.6c2.9,0,5.3-2.3,5.3-5.2c0-2.9-2.4-5.2-5.3-5.2
		c-2.9,0-5.3,2.3-5.3,5.2C274.3,301.3,276.6,303.6,279.6,303.6 M279.6,292.1c2.8,0,5.1-2.2,5.1-5c0-2.7-2.3-5-5.1-5
		c-2.8,0-5.1,2.2-5.1,5C274.5,289.8,276.8,292.1,279.6,292.1 M279.6,280.5c2.7,0,4.8-2.1,4.8-4.7c0-2.6-2.2-4.7-4.8-4.7
		c-2.7,0-4.8,2.1-4.8,4.7C274.7,278.4,276.9,280.5,279.6,280.5 M279.6,268.9c2.6,0,4.6-2,4.6-4.5c0-2.5-2-4.5-4.6-4.5
		c-2.5,0-4.6,2-4.6,4.5C275,266.9,277,268.9,279.6,268.9 M279.6,257.3c2.4,0,4.4-1.9,4.4-4.3c0-2.3-2-4.3-4.4-4.3
		c-2.4,0-4.3,1.9-4.3,4.3C275.2,255.4,277.2,257.3,279.6,257.3 M279.6,245.7c2.3,0,4.2-1.8,4.2-4c0-2.2-1.9-4-4.2-4
		c-2.2,0-4.1,1.8-4.1,4C275.4,243.9,277.3,245.7,279.6,245.7 M279.6,234.2c2.2,0,3.9-1.7,3.9-3.8c0-2.1-1.8-3.8-3.9-3.8
		c-2.1,0-3.9,1.7-3.9,3.8C275.7,232.5,277.4,234.2,279.6,234.2 M279.6,222.6c2,0,3.7-1.6,3.7-3.6c0-2-1.7-3.6-3.7-3.6
		c-2,0-3.7,1.6-3.7,3.6C275.9,221,277.5,222.6,279.6,222.6 M279.6,211c1.9,0,3.4-1.5,3.4-3.4c0-1.8-1.5-3.3-3.4-3.3
		c-1.9,0-3.4,1.5-3.4,3.3C276.2,209.5,277.7,211,279.6,211 M296.2,360.7c2-1.1,3.3-3.2,3.3-5.5c0-2.6-1.6-4.8-3.9-5.8
		c2.1-1,3.6-3.1,3.6-5.5c0-2.7-1.8-5-4.3-5.8c2.3-0.8,4-3,4-5.5c0-2.9-2.1-5.3-4.9-5.8c2.7-0.5,4.7-2.8,4.7-5.6
		c0-3.1-2.6-5.6-5.8-5.6c-3.2,0-5.8,2.6-5.8,5.6c0,2.8,2,5.1,4.7,5.6c-2.8,0.5-4.9,2.9-4.9,5.8c0,2.6,1.7,4.7,4,5.5
		c-2.5,0.8-4.3,3.1-4.3,5.8c0,2.4,1.5,4.6,3.6,5.5c-2.3,1-3.9,3.2-3.9,5.8c0,2.4,1.3,4.4,3.3,5.5c-2.1,1.1-3.6,3.3-3.6,5.8
		c0,3.6,3,6.6,6.7,6.6c3.7,0,6.7-3,6.7-6.6C299.7,364,298.3,361.8,296.2,360.7 M293,315.2c3.1,0,5.6-2.4,5.6-5.5
		c0-3-2.5-5.4-5.6-5.4c-3.1,0-5.5,2.4-5.5,5.4C287.5,312.8,289.9,315.2,293,315.2 M293,303.6c2.9,0,5.3-2.3,5.3-5.2
		c0-2.9-2.4-5.2-5.3-5.2c-2.9,0-5.3,2.3-5.3,5.2C287.7,301.3,290.1,303.6,293,303.6 M293,292.1c2.8,0,5.1-2.2,5.1-5
		c0-2.7-2.3-5-5.1-5c-2.8,0-5,2.2-5,5C288,289.8,290.2,292.1,293,292.1 M293,280.5c2.7,0,4.8-2.1,4.8-4.7c0-2.6-2.2-4.7-4.8-4.7
		c-2.7,0-4.8,2.1-4.8,4.7C288.2,278.4,290.3,280.5,293,280.5 M293,268.9c2.5,0,4.6-2,4.6-4.5c0-2.5-2.1-4.5-4.6-4.5
		c-2.5,0-4.6,2-4.6,4.5C288.4,266.9,290.5,268.9,293,268.9 M293,257.3c2.4,0,4.4-1.9,4.4-4.3c0-2.3-2-4.3-4.4-4.3
		c-2.4,0-4.4,1.9-4.4,4.3C288.6,255.4,290.6,257.3,293,257.3 M309.6,360.7c2-1.1,3.3-3.2,3.3-5.5c0-2.6-1.6-4.8-3.9-5.8
		c2.1-1,3.6-3.1,3.6-5.5c0-2.7-1.8-5-4.3-5.8c2.4-0.8,4-3,4-5.5c0-2.9-2.1-5.3-4.9-5.8c2.7-0.5,4.7-2.8,4.7-5.6
		c0-3.1-2.6-5.6-5.8-5.6c-3.2,0-5.8,2.6-5.8,5.6c0,2.8,2,5.1,4.7,5.6c-2.8,0.5-4.9,2.9-4.9,5.8c0,2.6,1.7,4.7,4,5.5
		c-2.5,0.8-4.3,3.1-4.3,5.8c0,2.4,1.5,4.6,3.7,5.5c-2.3,1-3.9,3.2-3.9,5.8c0,2.4,1.3,4.4,3.3,5.5c-2.1,1.1-3.6,3.3-3.6,5.8
		c0,3.6,3,6.6,6.7,6.6c3.7,0,6.7-3,6.7-6.6C313.2,364,311.7,361.8,309.6,360.7 M306.4,315.2c3.1,0,5.6-2.4,5.6-5.5
		c0-3-2.5-5.4-5.6-5.4c-3.1,0-5.5,2.4-5.5,5.4C300.9,312.8,303.4,315.2,306.4,315.2 M306.4,303.6c2.9,0,5.3-2.3,5.3-5.2
		c0-2.9-2.4-5.2-5.3-5.2c-2.9,0-5.3,2.3-5.3,5.2C301.1,301.3,303.5,303.6,306.4,303.6 M306.4,292.1c2.8,0,5.1-2.2,5.1-5
		c0-2.7-2.3-5-5.1-5c-2.8,0-5,2.2-5,5C301.4,289.8,303.6,292.1,306.4,292.1 M306.4,280.5c2.7,0,4.9-2.1,4.9-4.7
		c0-2.6-2.2-4.7-4.9-4.7c-2.7,0-4.8,2.1-4.8,4.7C301.6,278.4,303.8,280.5,306.4,280.5 M306.4,268.9c2.5,0,4.6-2,4.6-4.5
		c0-2.5-2.1-4.5-4.6-4.5c-2.6,0-4.6,2-4.6,4.5C301.9,266.9,303.9,268.9,306.4,268.9 M306.4,257.3c2.4,0,4.4-1.9,4.4-4.3
		c0-2.3-2-4.3-4.4-4.3c-2.4,0-4.4,1.9-4.4,4.3C302.1,255.4,304.1,257.3,306.4,257.3 M306.4,245.7c2.3,0,4.1-1.8,4.1-4
		c0-2.2-1.8-4-4.1-4c-2.3,0-4.1,1.8-4.1,4C302.3,243.9,304.2,245.7,306.4,245.7 M306.4,234.2c2.2,0,3.9-1.7,3.9-3.8
		c0-2.1-1.7-3.8-3.9-3.8c-2.1,0-3.9,1.7-3.9,3.8C302.6,232.5,304.3,234.2,306.4,234.2 M306.4,222.6c2,0,3.7-1.6,3.7-3.6
		c0-2-1.6-3.6-3.7-3.6s-3.7,1.6-3.7,3.6C302.8,221,304.4,222.6,306.4,222.6 M323.1,360.7c2-1.1,3.3-3.2,3.3-5.5
		c0-2.6-1.6-4.8-3.9-5.8c2.2-1,3.6-3.1,3.6-5.5c0-2.7-1.8-5-4.3-5.8c2.4-0.8,4-3,4-5.5c0-2.9-2.1-5.3-4.9-5.8
		c2.7-0.5,4.7-2.8,4.7-5.6c0-3.1-2.6-5.6-5.8-5.6c-3.2,0-5.8,2.6-5.8,5.6c0,2.8,2,5.1,4.7,5.6c-2.8,0.5-5,2.9-5,5.8
		c0,2.6,1.7,4.7,4.1,5.5c-2.5,0.8-4.3,3.1-4.3,5.8c0,2.4,1.5,4.6,3.6,5.5c-2.3,1-3.9,3.2-3.9,5.8c0,2.4,1.4,4.4,3.3,5.5
		c-2.1,1.1-3.6,3.3-3.6,5.8c0,3.6,3,6.6,6.7,6.6c3.7,0,6.7-3,6.7-6.6C326.6,364,325.2,361.8,323.1,360.7 M319.9,315.2
		c3.1,0,5.5-2.4,5.5-5.5c0-3-2.5-5.4-5.5-5.4s-5.6,2.4-5.6,5.4C314.3,312.8,316.8,315.2,319.9,315.2 M319.9,303.6
		c2.9,0,5.3-2.3,5.3-5.2c0-2.9-2.4-5.2-5.3-5.2c-2.9,0-5.3,2.3-5.3,5.2C314.6,301.3,317,303.6,319.9,303.6 M319.9,292.1
		c2.8,0,5.1-2.2,5.1-5c0-2.7-2.3-5-5.1-5c-2.8,0-5.1,2.2-5.1,5C314.8,289.8,317.1,292.1,319.9,292.1 M319.9,280.5
		c2.7,0,4.8-2.1,4.8-4.7c0-2.6-2.2-4.7-4.8-4.7c-2.7,0-4.8,2.1-4.8,4.7C315.1,278.4,317.2,280.5,319.9,280.5 M319.9,268.9
		c2.5,0,4.6-2,4.6-4.5c0-2.5-2.1-4.5-4.6-4.5c-2.6,0-4.6,2-4.6,4.5C315.3,266.9,317.4,268.9,319.9,268.9 M319.9,257.3
		c2.4,0,4.4-1.9,4.4-4.3c0-2.3-1.9-4.3-4.4-4.3c-2.4,0-4.3,1.9-4.3,4.3C315.6,255.4,317.5,257.3,319.9,257.3 M319.9,245.7
		c2.3,0,4.1-1.8,4.1-4c0-2.2-1.8-4-4.1-4c-2.3,0-4.1,1.8-4.1,4C315.8,243.9,317.6,245.7,319.9,245.7 M319.9,234.2
		c2.2,0,3.9-1.7,3.9-3.8c0-2.1-1.7-3.8-3.9-3.8c-2.2,0-3.9,1.7-3.9,3.8C316,232.5,317.7,234.2,319.9,234.2 M319.9,222.6
		c2,0,3.6-1.6,3.6-3.6c0-2-1.6-3.6-3.6-3.6c-2,0-3.7,1.6-3.7,3.6C316.2,221,317.9,222.6,319.9,222.6 M336.5,360.7
		c2-1.1,3.4-3.2,3.4-5.5c0-2.6-1.6-4.8-3.9-5.8c2.1-1,3.6-3.1,3.6-5.5c0-2.7-1.8-5-4.3-5.8c2.3-0.8,4-3,4-5.5c0-2.9-2.1-5.3-4.9-5.8
		c2.7-0.5,4.7-2.8,4.7-5.6c0-3.1-2.6-5.6-5.8-5.6c-3.2,0-5.8,2.6-5.8,5.6c0,2.8,2,5.1,4.7,5.6c-2.8,0.5-4.9,2.9-4.9,5.8
		c0,2.6,1.7,4.7,4.1,5.5c-2.5,0.8-4.3,3.1-4.3,5.8c0,2.4,1.5,4.6,3.7,5.5c-2.3,1-3.9,3.2-3.9,5.8c0,2.4,1.4,4.4,3.3,5.5
		c-2.1,1.1-3.6,3.3-3.6,5.8c0,3.6,3,6.6,6.7,6.6c3.7,0,6.7-3,6.7-6.6C340.1,364,338.6,361.8,336.5,360.7 M333.3,315.2
		c3.1,0,5.6-2.4,5.6-5.5c0-3-2.5-5.4-5.6-5.4c-3.1,0-5.5,2.4-5.5,5.4C327.8,312.8,330.3,315.2,333.3,315.2 M333.3,303.6
		c2.9,0,5.3-2.3,5.3-5.2c0-2.9-2.4-5.2-5.3-5.2c-2.9,0-5.3,2.3-5.3,5.2C328,301.3,330.4,303.6,333.3,303.6 M333.3,292.1
		c2.8,0,5.1-2.2,5.1-5c0-2.7-2.3-5-5.1-5c-2.8,0-5.1,2.2-5.1,5C328.3,289.8,330.6,292.1,333.3,292.1 M346.8,315.2
		c3.1,0,5.6-2.4,5.6-5.5c0-3-2.5-5.4-5.6-5.4c-3,0-5.5,2.4-5.5,5.4C341.3,312.8,343.7,315.2,346.8,315.2 M346.8,303.6
		c2.9,0,5.3-2.3,5.3-5.2c0-2.9-2.4-5.2-5.3-5.2c-2.9,0-5.3,2.3-5.3,5.2C341.5,301.3,343.9,303.6,346.8,303.6 M346.8,292.1
		c2.8,0,5.1-2.2,5.1-5c0-2.7-2.3-5-5.1-5c-2.8,0-5.1,2.2-5.1,5C341.7,289.8,344,292.1,346.8,292.1 M346.8,280.5
		c2.7,0,4.8-2.1,4.8-4.7c0-2.6-2.2-4.7-4.8-4.7c-2.6,0-4.9,2.1-4.9,4.7C341.9,278.4,344.1,280.5,346.8,280.5 M360.3,315.2
		c3,0,5.5-2.4,5.5-5.5c0-3-2.5-5.4-5.5-5.4c-3.1,0-5.6,2.4-5.6,5.4C354.7,312.8,357.2,315.2,360.3,315.2 M360.3,303.6
		c2.9,0,5.3-2.3,5.3-5.2c0-2.9-2.4-5.2-5.3-5.2c-2.9,0-5.3,2.3-5.3,5.2C354.9,301.3,357.3,303.6,360.3,303.6 M360.3,292.1
		c2.8,0,5.1-2.2,5.1-5c0-2.7-2.2-5-5.1-5c-2.8,0-5.1,2.2-5.1,5C355.2,289.8,357.4,292.1,360.3,292.1 M360.3,280.5
		c2.7,0,4.8-2.1,4.8-4.7c0-2.6-2.2-4.7-4.8-4.7c-2.7,0-4.9,2.1-4.9,4.7C355.4,278.4,357.6,280.5,360.3,280.5 M360.3,268.9
		c2.5,0,4.6-2,4.6-4.5c0-2.5-2.1-4.5-4.6-4.5c-2.6,0-4.6,2-4.6,4.5C355.6,266.9,357.7,268.9,360.3,268.9 M360.3,257.3
		c2.4,0,4.4-1.9,4.4-4.3c0-2.3-2-4.3-4.4-4.3c-2.4,0-4.3,1.9-4.3,4.3C355.9,255.4,357.8,257.3,360.3,257.3 M360.3,245.7
		c2.3,0,4.1-1.8,4.1-4c0-2.2-1.8-4-4.1-4c-2.3,0-4.1,1.8-4.1,4C356.1,243.9,358,245.7,360.3,245.7 M376.9,360.7
		c2-1.1,3.3-3.2,3.3-5.5c0-2.6-1.6-4.8-3.9-5.8c2.1-1,3.6-3.1,3.6-5.5c0-2.7-1.8-5-4.2-5.8c2.3-0.8,4-3,4-5.5c0-2.9-2.1-5.3-4.9-5.8
		c2.7-0.5,4.7-2.8,4.7-5.6c0-3.1-2.6-5.6-5.8-5.6c-3.2,0-5.8,2.6-5.8,5.6c0,2.8,2,5.1,4.7,5.6c-2.8,0.5-4.9,2.9-4.9,5.8
		c0,2.6,1.7,4.7,4,5.5c-2.5,0.8-4.3,3.1-4.3,5.8c0,2.4,1.5,4.6,3.6,5.5c-2.3,1-3.9,3.2-3.9,5.8c0,2.4,1.3,4.4,3.3,5.5
		c-2.1,1.1-3.5,3.3-3.6,5.8c0-2.5-1.4-4.7-3.6-5.8c2-1.1,3.3-3.2,3.3-5.5c0-2.6-1.6-4.8-3.9-5.8c2.2-1,3.6-3.1,3.6-5.5
		c0-2.7-1.8-5-4.3-5.8c2.3-0.8,4-3,4-5.5c0-2.9-2.1-5.3-4.9-5.8c2.7-0.5,4.7-2.8,4.7-5.6c0-3.1-2.6-5.6-5.8-5.6
		c-3.2,0-5.8,2.6-5.8,5.6c0,2.8,2,5.1,4.7,5.6c-2.8,0.5-4.9,2.9-4.9,5.8c0,2.6,1.7,4.7,4,5.5c-2.5,0.8-4.3,3.1-4.3,5.8
		c0,2.4,1.5,4.6,3.6,5.5c-2.3,1-3.9,3.2-3.9,5.8c0,2.4,1.4,4.4,3.3,5.5c-2.1,1.1-3.6,3.3-3.6,5.8c0-2.5-1.4-4.7-3.6-5.8
		c2-1.1,3.3-3.2,3.3-5.5c0-2.6-1.6-4.8-3.9-5.8c2.2-1,3.7-3.1,3.7-5.5c0-2.7-1.8-5-4.3-5.8c2.4-0.8,4-3,4-5.5c0-2.9-2.1-5.3-4.9-5.8
		c2.7-0.5,4.7-2.8,4.7-5.6c0-3.1-2.6-5.6-5.8-5.6c-3.2,0-5.8,2.6-5.8,5.6c0,2.8,2,5.1,4.7,5.6c-2.8,0.5-5,2.9-5,5.8
		c0,2.6,1.7,4.8,4,5.5c-2.5,0.8-4.2,3.1-4.2,5.8c0,2.4,1.5,4.6,3.6,5.5c-2.3,1-3.8,3.2-3.8,5.8c0,2.4,1.3,4.4,3.3,5.5
		c-2.1,1.1-3.5,3.3-3.5,5.8c0,3.6,3,6.6,6.7,6.6c3.7,0,6.7-3,6.7-6.6c0,3.6,3,6.6,6.7,6.6c3.7,0,6.7-3,6.7-6.6c0,3.6,3,6.6,6.8,6.6
		c3.7,0,6.7-3,6.7-6.6C380.4,364,379,361.8,376.9,360.7 M373.7,315.2c3.1,0,5.5-2.4,5.5-5.5c0-3-2.4-5.4-5.5-5.4
		c-3.1,0-5.6,2.4-5.6,5.4C368.1,312.8,370.6,315.2,373.7,315.2 M373.7,303.6c2.9,0,5.3-2.3,5.3-5.2c0-2.9-2.4-5.2-5.3-5.2
		c-3,0-5.3,2.3-5.3,5.2C368.4,301.3,370.7,303.6,373.7,303.6 M373.7,292.1c2.8,0,5-2.2,5-5c0-2.7-2.2-5-5-5c-2.8,0-5.1,2.2-5.1,5
		C368.6,289.8,370.9,292.1,373.7,292.1 M373.7,280.5c2.7,0,4.8-2.1,4.8-4.7c0-2.6-2.2-4.7-4.8-4.7c-2.7,0-4.8,2.1-4.8,4.7
		C368.9,278.4,371,280.5,373.7,280.5 M373.7,268.9c2.5,0,4.6-2,4.6-4.5c0-2.5-2-4.5-4.6-4.5c-2.6,0-4.6,2-4.6,4.5
		C369.1,266.9,371.1,268.9,373.7,268.9 M373.7,257.3c2.4,0,4.4-1.9,4.4-4.3c0-2.3-2-4.3-4.4-4.3c-2.4,0-4.4,1.9-4.4,4.3
		C369.3,255.4,371.3,257.3,373.7,257.3 M373.7,245.7c2.3,0,4.1-1.8,4.1-4c0-2.2-1.8-4-4.1-4c-2.3,0-4.1,1.8-4.1,4
		C369.6,243.9,371.4,245.7,373.7,245.7 M373.7,234.2c2.1,0,3.9-1.7,3.9-3.8c0-2.1-1.8-3.8-3.9-3.8c-2.2,0-3.9,1.7-3.9,3.8
		C369.8,232.5,371.5,234.2,373.7,234.2 M373.7,222.6c2,0,3.6-1.6,3.6-3.6c0-2-1.6-3.6-3.6-3.6c-2,0-3.7,1.6-3.7,3.6
		C370,221,371.7,222.6,373.7,222.6 M373.7,211c1.9,0,3.4-1.5,3.4-3.4c0-1.8-1.5-3.3-3.4-3.3c-1.9,0-3.4,1.5-3.4,3.3
		C370.3,209.5,371.8,211,373.7,211 M390.3,360.7c2-1.1,3.3-3.2,3.3-5.5c0-2.6-1.6-4.8-3.9-5.8c2.1-1,3.6-3.1,3.6-5.5
		c0-2.7-1.8-5-4.3-5.8c2.4-0.8,4-3,4-5.5c0-2.9-2.1-5.3-5-5.8c2.7-0.5,4.7-2.8,4.7-5.6c0-3.1-2.6-5.6-5.8-5.6
		c-3.2,0-5.8,2.6-5.8,5.6c0,2.8,2,5.1,4.7,5.6c-2.8,0.5-4.9,2.9-4.9,5.8c0,2.6,1.7,4.7,4,5.5c-2.5,0.8-4.3,3.1-4.3,5.8
		c0,2.4,1.5,4.6,3.6,5.5c-2.3,1-3.9,3.2-3.9,5.8c0,2.4,1.3,4.4,3.4,5.5c-2.2,1.1-3.6,3.3-3.6,5.8c0,3.6,3,6.6,6.7,6.6
		c3.7,0,6.7-3,6.7-6.6C393.9,364,392.4,361.8,390.3,360.7 M387.1,315.2c3.1,0,5.6-2.4,5.6-5.5c0-3-2.5-5.4-5.6-5.4
		c-3.1,0-5.5,2.4-5.5,5.4C381.6,312.8,384.1,315.2,387.1,315.2 M387.1,303.6c2.9,0,5.3-2.3,5.3-5.2c0-2.9-2.4-5.2-5.3-5.2
		c-2.9,0-5.3,2.3-5.3,5.2C381.8,301.3,384.2,303.6,387.1,303.6 M387.1,292.1c2.8,0,5.1-2.2,5.1-5c0-2.7-2.2-5-5.1-5
		c-2.8,0-5,2.2-5,5C382.1,289.8,384.3,292.1,387.1,292.1 M387.1,280.5c2.7,0,4.8-2.1,4.8-4.7c0-2.6-2.2-4.7-4.8-4.7
		c-2.7,0-4.8,2.1-4.8,4.7C382.3,278.4,384.5,280.5,387.1,280.5 M387.1,268.9c2.5,0,4.6-2,4.6-4.5c0-2.5-2.1-4.5-4.6-4.5
		c-2.5,0-4.6,2-4.6,4.5C382.6,266.9,384.6,268.9,387.1,268.9 M387.1,257.3c2.4,0,4.4-1.9,4.4-4.3c0-2.3-1.9-4.3-4.4-4.3
		c-2.4,0-4.4,1.9-4.4,4.3C382.8,255.4,384.7,257.3,387.1,257.3 M387.1,245.7c2.3,0,4.1-1.8,4.1-4c0-2.2-1.8-4-4.1-4
		c-2.3,0-4.1,1.8-4.1,4C383,243.9,384.9,245.7,387.1,245.7 M387.1,234.2c2.2,0,3.9-1.7,3.9-3.8c0-2.1-1.7-3.8-3.9-3.8
		c-2.2,0-3.9,1.7-3.9,3.8C383.2,232.5,385,234.2,387.1,234.2 M387.1,222.6c2,0,3.6-1.6,3.6-3.6c0-2-1.6-3.6-3.6-3.6
		c-2,0-3.7,1.6-3.7,3.6C383.5,221,385.1,222.6,387.1,222.6 M387.1,211c1.9,0,3.4-1.5,3.4-3.4c0-1.8-1.5-3.3-3.4-3.3
		c-1.9,0-3.4,1.5-3.4,3.3C383.7,209.5,385.2,211,387.1,211 M269.3,360.7c2-1.1,3.3-3.2,3.3-5.5c0-2.6-1.6-4.8-3.9-5.8
		c2.2-1,3.6-3.1,3.6-5.5c0-2.7-1.8-5-4.3-5.8c2.3-0.8,4-3,4-5.5c0-2.9-2.1-5.3-4.9-5.8c2.7-0.5,4.7-2.8,4.7-5.6
		c0-3.1-2.6-5.6-5.8-5.6c-3.2,0-5.8,2.6-5.8,5.6c0,2.8,2,5.1,4.7,5.6c-2.8,0.5-4.9,2.9-4.9,5.8c0,2.6,1.7,4.7,4,5.5
		c-2.5,0.8-4.2,3.1-4.2,5.8c0,2.4,1.5,4.6,3.6,5.5c-2.3,1-3.9,3.2-3.9,5.8c0,2.4,1.3,4.4,3.3,5.5c-2.1,1.1-3.6,3.3-3.6,5.8
		c0,3.6,3,6.6,6.7,6.6c3.7,0,6.7-3,6.7-6.6C272.8,364,271.4,361.8,269.3,360.7"/>
	<path class="st0" d="M250.5,408.8c-0.6-1-1.5-1.9-2.7-2.7c-1.2-0.8-3.2-1.8-6-3c-3.5-1.5-5.8-2.6-6.7-3.4c-0.8-0.7-1.2-1.6-1.2-2.5
		c0-1.2,0.6-2.2,1.8-3.1c1.2-0.9,2.8-1.3,4.7-1.3c1.8,0,3.4,0.5,4.7,1.3c1.2,0.8,2.4,2,3,3.8c0,0.2,0.2,0.3,0.4,0.3
		c0.2,0,0.4-0.1,0.4-0.3v0l0.4-4.8c-1-0.6-2.4-1.2-3.4-1.5c-1.3-0.3-2.9-0.5-4.7-0.5c-3.2,0-5.8,0.7-7.8,2.1
		c-1.9,1.4-2.9,3.1-2.9,5.2c0,1.1,0.3,2.1,0.8,3c0.7,1.1,1.8,2.1,3.3,3.1c0.9,0.6,2.8,1.5,5.8,2.8c3,1.3,5,2.5,5.9,3.4
		c1,0.9,1.4,2,1.4,3.1c0,0.8-0.3,1.7-1,2.5c-0.6,0.9-1.5,1.5-2.6,2c-1.1,0.5-2.4,0.7-3.7,0.7c-2.2,0-4.2-0.7-5.9-2.1
		c-1.7-1.4-2.8-2.6-3.1-4.3c0-0.1,0-0.2,0-0.3c0-0.3-0.2-0.5-0.6-0.5c-0.3,0-0.6,0.2-0.6,0.5c0,0.2-0.5,5.7-0.5,5.7
		c0,0.3,0.1,0.5,0.4,0.7c0.3,0.2,1.1,0.6,2.4,0.9c2.2,0.6,4.4,0.9,6.8,0.9c2.7,0,4.9-0.4,6.6-1c1.7-0.7,3-1.7,4-3.1
		c1-1.4,1.4-2.8,1.4-4.4C251.4,410.9,251.1,409.8,250.5,408.8"/>
	<path class="st0" d="M326.3,403.8c3.4-1.1,5.8-3.3,5.8-5.8c0-3.7-5.1-6.6-11.3-6.6h-0.1c-2,0-4.7,0-5.7,0c-2.6,0.1-4.3,0.2-6.4,0.4
		l-1.8,0.1h0c-0.3,0-0.6,0.2-0.6,0.4c0,0.3,0.2,0.5,0.5,0.6l3.1,0.6c0.9,0.2,0.9,0.7,0.8,1.5v22.5v0c0,0.7-0.6,1.4-1.5,1.5h0
		l-2.4,0.6c-0.3,0-0.6,0.3-0.5,0.5c0,0.3,0.3,0.5,0.6,0.4h0h15.5h0c7.1,0,12.9-3.8,12.9-8.6C335.2,408.1,331.4,404.9,326.3,403.8
		 M319.6,392.8c1.9,0,3.5,0.3,4.8,0.9c0.2,0.1,5.3,2.4,2,7.3c-0.1,0.1-1.9,3-8.1,3c-1,0-2.2-0.1-3.3-0.2l0-10.5
		C315.7,393.1,317.5,392.8,319.6,392.8 M329,416.1c0,0-2,2.7-7.6,2.8c0,0-0.2,0-0.4,0c-1.3,0-5.6-0.2-5.9-3.1v-10.1
		c0.6-0.1,2.5-0.3,4.6-0.3c3.1,0,5.6,0.4,7.4,1.3c0,0,1.6,0.9,2.6,2.5C331.1,411.4,330.9,413.7,329,416.1"/>
	<path class="st0" d="M381.7,419.4L381.7,419.4l-2.4-0.6c-0.9-0.1-1.5-0.7-1.5-1.5v0v-22.8c0-0.7,0.6-1.4,1.5-1.5l2.4-0.6
		c0.3,0,0.6-0.3,0.5-0.6c0-0.3-0.3-0.5-0.7-0.5h0h-3.8h-4.5h-3.8h0c-0.3,0-0.7,0.2-0.7,0.5c0,0.3,0.2,0.5,0.5,0.5v0l2.4,0.6
		c0.9,0.1,1.5,0.7,1.5,1.5h0l0,10.6h-18.7v-10.7c0-0.7,0.6-1.2,1.5-1.3l2.4-0.6c0.3,0,0.6-0.3,0.5-0.6c0-0.3-0.3-0.5-0.7-0.5h0
		l-3.7,0v0H350h-3.8c-0.3,0-0.6,0.2-0.7,0.5c0,0.3,0.2,0.5,0.5,0.5l0,0l2.4,0.6c0.8,0.1,1.3,0.6,1.5,1.2v23.4
		c-0.1,0.6-0.7,1.1-1.5,1.2l-2.4,0.6h0c-0.3,0-0.6,0.3-0.5,0.5c0.1,0.3,0.3,0.5,0.7,0.5h3.8h4.5h3.7h0c0.3,0,0.6-0.2,0.7-0.5
		c0-0.3-0.2-0.5-0.5-0.5l-2.4-0.6c-0.8-0.1-1.4-0.6-1.5-1.3v-10.7h18.7l0,10.6l0,0c0,0.7-0.6,1.4-1.5,1.5l-2.4,0.6
		c-0.3,0-0.6,0.3-0.5,0.5c0,0.3,0.3,0.5,0.7,0.5h0h3.8h4.5h3.8h0c0.3,0,0.7-0.2,0.7-0.5C382.3,419.7,382,419.4,381.7,419.4"/>
	<path class="st0" d="M422.8,419.4L422.8,419.4l-1.8-0.5h0c-0.9-0.2-1.6-0.7-1.9-1.4l0,0l-12-26.1H406l-12,26.1l0,0
		c-0.3,0.7-1,1.2-1.9,1.4h0l-1.8,0.5c-0.3,0-0.6,0.3-0.5,0.6c0,0.3,0.3,0.5,0.7,0.4h8.9h0c0.3,0,0.6-0.2,0.7-0.4
		c0-0.3-0.2-0.5-0.5-0.6l-2.2-0.5c-0.4-0.1-0.8-0.3-1-0.6c-0.2-0.3-0.2-0.6,0-1v0l3.9-8.5h10.8l3.7,8.1h0c0.5,1-0.3,1.8-1.1,1.9
		l-2.5,0.6c-0.3,0-0.6,0.3-0.5,0.6c0,0.3,0.4,0.5,0.7,0.4h0h11.2c0.3,0,0.6-0.2,0.7-0.4C423.4,419.7,423.2,419.4,422.8,419.4
		 M401.2,407.1l4.6-10.1l4.6,10.1H401.2z"/>
	<path class="st0" d="M296.8,405.6c0-1.7-0.3-3.4-1-5.1c-0.5-1.2-1.2-2.4-2.2-3.5c-1.4-1.6-2.8-2.7-4.1-3.5
		c-1.4-0.8-2.9-1.3-4.6-1.8c-1.7-0.4-3.4-0.6-5.2-0.6c-0.2,0-0.4,0-0.7,0c-0.2,0-0.5,0-0.7,0c-1.7,0-3.5,0.2-5.2,0.6
		c-1.7,0.4-3.2,1-4.6,1.8c-1.4,0.7-2.7,1.9-4.1,3.5c-1,1.1-1.7,2.2-2.2,3.5c-0.6,1.6-0.9,3.3-0.9,5.1v0.3v0.4c0,1.7,0.3,3.4,0.9,5.1
		c0.5,1.3,1.2,2.4,2.2,3.5c1.4,1.6,2.7,2.7,4.1,3.5c1.4,0.8,2.9,1.3,4.6,1.8c1.7,0.4,3.4,0.6,5.2,0.6c0.2,0,0.5,0,0.7,0
		c0.2,0,0.5,0,0.7,0c1.8,0,3.5-0.2,5.2-0.6c1.7-0.4,3.2-1,4.6-1.8c1.4-0.7,2.8-1.9,4.1-3.5c1-1.1,1.7-2.2,2.2-3.5
		c0.6-1.6,1-3.3,1-5.1v-0.4V405.6z M292.2,406c0,2-0.3,3.9-1,5.8c-0.5,1.5-1.4,2.8-2.6,3.9c-1.2,1.2-2.6,2-4.2,2.7
		c-1.7,0.6-3.4,1-5.3,1h0h0c-1.9,0-3.6-0.3-5.3-1c-1.7-0.6-3.1-1.5-4.3-2.7c-1.2-1.2-2-2.5-2.5-3.9c-0.7-1.9-1-3.9-1-5.8v-0.1v0
		c0-2,0.3-3.9,1-5.9c0.5-1.5,1.4-2.8,2.5-3.9c1.2-1.2,2.6-2,4.3-2.7c1.7-0.6,3.4-0.9,5.3-0.9h0h0c1.9,0,3.6,0.3,5.3,0.9
		c1.7,0.6,3.1,1.5,4.2,2.7c1.2,1.2,2,2.5,2.6,3.9c0.7,1.9,1,3.9,1,5.9V406L292.2,406z"/>
</g>
</svg>
